<svg width="57" height="56" viewBox="0 0 57 56" fill="none" xmlns="http://www.w3.org/2000/svg">
<line x1="3.68349" y1="48.4062" x2="3.68349" y2="32.1357" stroke="#A78061" stroke-width="3.48654"/>
<line y1="-1.74327" x2="9.79056" y2="-1.74327" transform="matrix(-0.314133 0.949379 -0.982624 -0.185607 5.07275 22.8594)" stroke="#A78061" stroke-width="3.48654"/>
<line y1="-1.74327" x2="9.79056" y2="-1.74327" transform="matrix(0.314133 0.949379 0.982624 -0.185607 51.2148 22.8594)" stroke="#A78061" stroke-width="3.48654"/>
<line x1="52.5497" y1="48.4219" x2="52.5497" y2="32.1513" stroke="#A78061" stroke-width="3.48654"/>
<line x1="54.293" y1="33.8995" x2="1.99476" y2="33.8995" stroke="#A78061" stroke-width="3.48654"/>
<line x1="54.293" y1="43.1964" x2="1.99476" y2="43.1964" stroke="#A78061" stroke-width="3.48654"/>
<mask id="path-7-inside-1_2114_1702" fill="white">
<path d="M5.07275 9.69155C5.07275 8.40784 6.11341 7.36719 7.39712 7.36719H48.8939C50.1776 7.36719 51.2182 8.40784 51.2182 9.69155V26.7365H5.07275V9.69155Z"/>
</mask>
<path d="M5.07275 9.69155C5.07275 8.40784 6.11341 7.36719 7.39712 7.36719H48.8939C50.1776 7.36719 51.2182 8.40784 51.2182 9.69155V26.7365H5.07275V9.69155Z" stroke="#A78061" stroke-width="6.97309" mask="url(#path-7-inside-1_2114_1702)"/>
<mask id="path-8-inside-2_2114_1702" fill="white">
<path d="M12.0366 15.754C12.0366 14.4703 13.0773 13.4297 14.361 13.4297H41.467C42.7507 13.4297 43.7913 14.4703 43.7913 15.754V25.1797H12.0366V15.754Z"/>
</mask>
<path d="M8.55008 15.754C8.55008 12.5448 11.1517 9.94314 14.361 9.94314H41.467C44.6762 9.94314 47.2779 12.5448 47.2779 15.754L40.3048 16.9162H15.5232L8.55008 15.754ZM43.7913 25.1797H12.0366H43.7913ZM8.55008 25.1797V15.754C8.55008 12.5448 11.1517 9.94314 14.361 9.94314L15.5232 16.9162V25.1797H8.55008ZM41.467 9.94314C44.6762 9.94314 47.2779 12.5448 47.2779 15.754V25.1797H40.3048V16.9162L41.467 9.94314Z" fill="#A78061" mask="url(#path-8-inside-2_2114_1702)"/>
<line x1="28.0267" y1="24.1094" x2="28.0267" y2="15.1068" stroke="#A78061" stroke-width="3.48654"/>
</svg>
