<svg width="40" height="41" viewBox="0 0 40 41" fill="none" xmlns="http://www.w3.org/2000/svg">
<g clip-path="url(#clip0_2092_1748)">
<path d="M23.6875 10.25H28.6094V2.86719C27.0206 2.86719 14.5436 2.86719 12.6133 2.86719C7.86392 2.86719 4 6.73111 4 11.4805V12.7109H8.92188V14.4268C8.92188 17.0854 8.14233 19.66 6.66757 21.8722C4.92244 24.4899 4 27.5364 4 30.6826V44.8672H23.6875V32.1873C23.6875 29.6143 22.6856 27.1954 20.8662 25.376C19.5116 24.0214 18.7657 22.2205 18.7656 20.3048V12.7109H21.2266C21.2266 15.4249 23.4345 17.6328 26.1484 17.6328V15.1719C24.7915 15.1719 23.6875 14.0679 23.6875 12.7109C23.6875 11.8503 23.6875 11.1107 23.6875 10.25ZM26.1484 5.32812V7.78906H23.6875V5.32812H26.1484ZM19.1261 27.1161C20.4806 28.4707 21.2266 30.2717 21.2266 32.1873V42.4062H6.46094V30.6826C6.46094 28.024 7.24048 25.4494 8.71524 23.2372C9.85851 21.5222 10.6486 19.6232 11.0576 17.6328H16.3047V20.3049C16.3048 22.8778 17.3067 25.2968 19.1261 27.1161ZM16.3047 15.1719H11.3648C11.3763 14.9242 11.3828 14.6758 11.3828 14.4268V12.7109H16.3047V15.1719ZM6.58456 10.25C7.15623 7.44527 9.64219 5.32812 12.6133 5.32812H21.2266V10.25C19.4298 10.25 7.81757 10.25 6.58456 10.25Z" fill="#A78061" stroke="#A78061" stroke-width="0.547826"/>
<path d="M36.0982 5.09375H34.776C34.4111 5.09375 34.1149 4.80041 34.1149 4.4375C34.1149 4.07459 34.4111 3.78125 34.776 3.78125H36.0982C36.4631 3.78125 36.7593 4.07459 36.7593 4.4375C36.7593 4.80041 36.4631 5.09375 36.0982 5.09375Z" fill="#A78061" stroke="#A78061" stroke-width="0.547826"/>
<path d="M30.2252 3.78125H31.5474C31.9123 3.78125 32.2085 4.07459 32.2085 4.4375C32.2085 4.80041 31.9123 5.09375 31.5474 5.09375H30.2252C29.8603 5.09375 29.5641 4.80041 29.5641 4.4375C29.5641 4.07459 29.8603 3.78125 30.2252 3.78125Z" fill="#A78061" stroke="#A78061" stroke-width="0.547826"/>
<path d="M40.6455 5.09375H39.3233C38.9584 5.09375 38.6623 4.80041 38.6623 4.4375C38.6623 4.07459 38.9584 3.78125 39.3233 3.78125H40.6455C41.0105 3.78125 41.3066 4.07459 41.3066 4.4375C41.3066 4.80041 41.0105 5.09375 40.6455 5.09375Z" fill="#A78061" stroke="#A78061" stroke-width="0.547826"/>
<path d="M36.7752 9.71617C36.5625 10.2358 35.9814 10.1403 35.9366 10.125L34.6847 9.70115C34.3386 9.58391 34.1541 9.21057 34.2715 8.86781C34.3889 8.52506 34.7653 8.3419 35.1101 8.45898L36.362 8.88283C36.7073 9.00065 36.9123 9.38109 36.7752 9.71617Z" fill="#A78061" stroke="#A78061" stroke-width="0.547826"/>
<path d="M32.2099 7.88735C31.9737 8.45832 31.4161 8.31151 31.3713 8.29618L30.1194 7.87233C29.774 7.75517 29.5887 7.38239 29.7061 7.03964C29.8235 6.69688 30.1999 6.51372 30.5447 6.6308L31.7959 7.05458C32.142 7.17182 32.3483 7.55243 32.2099 7.88735Z" fill="#A78061" stroke="#A78061" stroke-width="0.547826"/>
<path d="M38.8363 10.6874C38.9537 10.3447 39.3294 10.1621 39.6749 10.2786L40.9268 10.7018C41.2729 10.8191 41.488 11.204 41.3407 11.5352C41.0892 12.1004 40.5469 11.9594 40.5021 11.9441L39.2502 11.5202C38.9042 11.403 38.7195 11.0303 38.8363 10.6874Z" fill="#A78061" stroke="#A78061" stroke-width="0.547826"/>
</g>
<defs>
<clipPath id="clip0_2092_1748">
<rect width="40" height="40" fill="white" transform="translate(0 0.867188)"/>
</clipPath>
</defs>
</svg>
