<svg width="57" height="56" viewBox="0 0 57 56" fill="none" xmlns="http://www.w3.org/2000/svg">
<path d="M45.7504 44.4827L42.4687 36.7615C40.7314 32.5149 36.4845 29.8125 31.8516 29.8125H25.2884C20.6555 29.8125 16.4086 32.5149 14.6713 36.7615L11.3896 44.4827C11.0036 45.4478 11.3896 46.606 12.3548 46.9921C13.32 47.3781 14.4782 46.9921 14.8643 46.0269L18.146 38.3058C19.4972 35.6034 22.1998 33.6731 25.2884 33.6731H31.8516C34.9402 33.6731 37.6428 35.6034 38.994 38.3058L42.2757 46.0269C42.6618 46.799 43.2409 47.1851 44.013 47.1851C44.2061 47.1851 44.5921 47.1851 44.7852 46.9921C45.7504 46.606 46.1364 45.4478 45.7504 44.4827Z" fill="#A78061"/>
<path d="M28.5713 27.8888C33.9764 27.8888 38.2232 23.6422 38.2232 18.2374C38.2232 12.8326 33.9764 8.58594 28.5713 8.58594C23.1663 8.58594 18.9194 12.8326 18.9194 18.2374C18.9194 23.6422 23.1663 27.8888 28.5713 27.8888ZM28.5713 12.4465C31.853 12.4465 34.3624 14.9559 34.3624 18.2374C34.3624 21.5189 31.853 24.0282 28.5713 24.0282C25.2897 24.0282 22.7802 21.5189 22.7802 18.2374C22.7802 14.9559 25.2897 12.4465 28.5713 12.4465Z" fill="#A78061"/>
</svg>
