<svg width="40" height="41" viewBox="0 0 40 41" fill="none" xmlns="http://www.w3.org/2000/svg">
<mask id="path-1-inside-1_2092_1914" fill="white">
<path d="M20.0002 32.5312C20.3298 32.5312 20.652 32.4335 20.9261 32.2504C21.2002 32.0672 21.4138 31.8069 21.54 31.5024C21.6661 31.1978 21.6991 30.8627 21.6348 30.5394C21.5705 30.2161 21.4118 29.9192 21.1787 29.6861C20.9456 29.453 20.6486 29.2942 20.3253 29.2299C20.002 29.1656 19.6669 29.1986 19.3624 29.3248C19.0578 29.4509 18.7975 29.6645 18.6144 29.9386C18.4312 30.2127 18.3335 30.5349 18.3335 30.8646C18.3335 31.3066 18.5091 31.7305 18.8217 32.0431C19.1342 32.3557 19.5581 32.5312 20.0002 32.5312ZM28.3335 32.5312C28.6631 32.5312 28.9854 32.4335 29.2594 32.2504C29.5335 32.0672 29.7472 31.8069 29.8733 31.5024C29.9994 31.1978 30.0324 30.8627 29.9681 30.5394C29.9038 30.2161 29.7451 29.9192 29.512 29.6861C29.2789 29.453 28.982 29.2942 28.6586 29.2299C28.3353 29.1656 28.0002 29.1986 27.6957 29.3248C27.3911 29.4509 27.1308 29.6645 26.9477 29.9386C26.7646 30.2127 26.6668 30.5349 26.6668 30.8646C26.6668 31.3066 26.8424 31.7305 27.155 32.0431C27.4675 32.3557 27.8915 32.5312 28.3335 32.5312ZM28.3335 25.8646C28.6631 25.8646 28.9854 25.7668 29.2594 25.5837C29.5335 25.4006 29.7472 25.1403 29.8733 24.8357C29.9994 24.5312 30.0324 24.1961 29.9681 23.8728C29.9038 23.5495 29.7451 23.2525 29.512 23.0194C29.2789 22.7863 28.982 22.6276 28.6586 22.5633C28.3353 22.499 28.0002 22.532 27.6957 22.6581C27.3911 22.7843 27.1308 22.9979 26.9477 23.272C26.7646 23.546 26.6668 23.8683 26.6668 24.1979C26.6668 24.6399 26.8424 25.0639 27.155 25.3764C27.4675 25.689 27.8915 25.8646 28.3335 25.8646ZM20.0002 25.8646C20.3298 25.8646 20.652 25.7668 20.9261 25.5837C21.2002 25.4006 21.4138 25.1403 21.54 24.8357C21.6661 24.5312 21.6991 24.1961 21.6348 23.8728C21.5705 23.5495 21.4118 23.2525 21.1787 23.0194C20.9456 22.7863 20.6486 22.6276 20.3253 22.5633C20.002 22.499 19.6669 22.532 19.3624 22.6581C19.0578 22.7843 18.7975 22.9979 18.6144 23.272C18.4312 23.546 18.3335 23.8683 18.3335 24.1979C18.3335 24.6399 18.5091 25.0639 18.8217 25.3764C19.1342 25.689 19.5581 25.8646 20.0002 25.8646ZM31.6668 5.86458H30.0002V4.19792C30.0002 3.75589 29.8246 3.33197 29.512 3.01941C29.1994 2.70684 28.7755 2.53125 28.3335 2.53125C27.8915 2.53125 27.4675 2.70684 27.155 3.01941C26.8424 3.33197 26.6668 3.75589 26.6668 4.19792V5.86458H13.3335V4.19792C13.3335 3.75589 13.1579 3.33197 12.8453 3.01941C12.5328 2.70684 12.1089 2.53125 11.6668 2.53125C11.2248 2.53125 10.8009 2.70684 10.4883 3.01941C10.1758 3.33197 10.0002 3.75589 10.0002 4.19792V5.86458H8.3335C7.00741 5.86458 5.73564 6.39137 4.79796 7.32905C3.86028 8.26673 3.3335 9.5385 3.3335 10.8646V34.1979C3.3335 35.524 3.86028 36.7958 4.79796 37.7334C5.73564 38.6711 7.00741 39.1979 8.3335 39.1979H31.6668C32.9929 39.1979 34.2647 38.6711 35.2024 37.7334C36.14 36.7958 36.6668 35.524 36.6668 34.1979V10.8646C36.6668 9.5385 36.14 8.26673 35.2024 7.32905C34.2647 6.39137 32.9929 5.86458 31.6668 5.86458ZM33.3335 34.1979C33.3335 34.6399 33.1579 35.0639 32.8453 35.3764C32.5328 35.689 32.1089 35.8646 31.6668 35.8646H8.3335C7.89147 35.8646 7.46755 35.689 7.15499 35.3764C6.84242 35.0639 6.66683 34.6399 6.66683 34.1979V19.1979H33.3335V34.1979ZM33.3335 15.8646H6.66683V10.8646C6.66683 10.4226 6.84242 9.99863 7.15499 9.68607C7.46755 9.37351 7.89147 9.19792 8.3335 9.19792H10.0002V10.8646C10.0002 11.3066 10.1758 11.7305 10.4883 12.0431C10.8009 12.3557 11.2248 12.5312 11.6668 12.5312C12.1089 12.5312 12.5328 12.3557 12.8453 12.0431C13.1579 11.7305 13.3335 11.3066 13.3335 10.8646V9.19792H26.6668V10.8646C26.6668 11.3066 26.8424 11.7305 27.155 12.0431C27.4675 12.3557 27.8915 12.5312 28.3335 12.5312C28.7755 12.5312 29.1994 12.3557 29.512 12.0431C29.8246 11.7305 30.0002 11.3066 30.0002 10.8646V9.19792H31.6668C32.1089 9.19792 32.5328 9.37351 32.8453 9.68607C33.1579 9.99863 33.3335 10.4226 33.3335 10.8646V15.8646ZM11.6668 25.8646C11.9965 25.8646 12.3187 25.7668 12.5928 25.5837C12.8669 25.4006 13.0805 25.1403 13.2066 24.8357C13.3328 24.5312 13.3658 24.1961 13.3015 23.8728C13.2372 23.5495 13.0784 23.2525 12.8453 23.0194C12.6123 22.7863 12.3153 22.6276 11.992 22.5633C11.6687 22.499 11.3336 22.532 11.029 22.6581C10.7245 22.7843 10.4642 22.9979 10.281 23.272C10.0979 23.546 10.0002 23.8683 10.0002 24.1979C10.0002 24.6399 10.1758 25.0639 10.4883 25.3764C10.8009 25.689 11.2248 25.8646 11.6668 25.8646ZM11.6668 32.5312C11.9965 32.5312 12.3187 32.4335 12.5928 32.2504C12.8669 32.0672 13.0805 31.8069 13.2066 31.5024C13.3328 31.1978 13.3658 30.8627 13.3015 30.5394C13.2372 30.2161 13.0784 29.9192 12.8453 29.6861C12.6123 29.453 12.3153 29.2942 11.992 29.2299C11.6687 29.1656 11.3336 29.1986 11.029 29.3248C10.7245 29.4509 10.4642 29.6645 10.281 29.9386C10.0979 30.2127 10.0002 30.5349 10.0002 30.8646C10.0002 31.3066 10.1758 31.7305 10.4883 32.0431C10.8009 32.3557 11.2248 32.5312 11.6668 32.5312Z"/>
</mask>
<path d="M20.0002 32.5312C20.3298 32.5312 20.652 32.4335 20.9261 32.2504C21.2002 32.0672 21.4138 31.8069 21.54 31.5024C21.6661 31.1978 21.6991 30.8627 21.6348 30.5394C21.5705 30.2161 21.4118 29.9192 21.1787 29.6861C20.9456 29.453 20.6486 29.2942 20.3253 29.2299C20.002 29.1656 19.6669 29.1986 19.3624 29.3248C19.0578 29.4509 18.7975 29.6645 18.6144 29.9386C18.4312 30.2127 18.3335 30.5349 18.3335 30.8646C18.3335 31.3066 18.5091 31.7305 18.8217 32.0431C19.1342 32.3557 19.5581 32.5312 20.0002 32.5312ZM28.3335 32.5312C28.6631 32.5312 28.9854 32.4335 29.2594 32.2504C29.5335 32.0672 29.7472 31.8069 29.8733 31.5024C29.9994 31.1978 30.0324 30.8627 29.9681 30.5394C29.9038 30.2161 29.7451 29.9192 29.512 29.6861C29.2789 29.453 28.982 29.2942 28.6586 29.2299C28.3353 29.1656 28.0002 29.1986 27.6957 29.3248C27.3911 29.4509 27.1308 29.6645 26.9477 29.9386C26.7646 30.2127 26.6668 30.5349 26.6668 30.8646C26.6668 31.3066 26.8424 31.7305 27.155 32.0431C27.4675 32.3557 27.8915 32.5312 28.3335 32.5312ZM28.3335 25.8646C28.6631 25.8646 28.9854 25.7668 29.2594 25.5837C29.5335 25.4006 29.7472 25.1403 29.8733 24.8357C29.9994 24.5312 30.0324 24.1961 29.9681 23.8728C29.9038 23.5495 29.7451 23.2525 29.512 23.0194C29.2789 22.7863 28.982 22.6276 28.6586 22.5633C28.3353 22.499 28.0002 22.532 27.6957 22.6581C27.3911 22.7843 27.1308 22.9979 26.9477 23.272C26.7646 23.546 26.6668 23.8683 26.6668 24.1979C26.6668 24.6399 26.8424 25.0639 27.155 25.3764C27.4675 25.689 27.8915 25.8646 28.3335 25.8646ZM20.0002 25.8646C20.3298 25.8646 20.652 25.7668 20.9261 25.5837C21.2002 25.4006 21.4138 25.1403 21.54 24.8357C21.6661 24.5312 21.6991 24.1961 21.6348 23.8728C21.5705 23.5495 21.4118 23.2525 21.1787 23.0194C20.9456 22.7863 20.6486 22.6276 20.3253 22.5633C20.002 22.499 19.6669 22.532 19.3624 22.6581C19.0578 22.7843 18.7975 22.9979 18.6144 23.272C18.4312 23.546 18.3335 23.8683 18.3335 24.1979C18.3335 24.6399 18.5091 25.0639 18.8217 25.3764C19.1342 25.689 19.5581 25.8646 20.0002 25.8646ZM31.6668 5.86458H30.0002V4.19792C30.0002 3.75589 29.8246 3.33197 29.512 3.01941C29.1994 2.70684 28.7755 2.53125 28.3335 2.53125C27.8915 2.53125 27.4675 2.70684 27.155 3.01941C26.8424 3.33197 26.6668 3.75589 26.6668 4.19792V5.86458H13.3335V4.19792C13.3335 3.75589 13.1579 3.33197 12.8453 3.01941C12.5328 2.70684 12.1089 2.53125 11.6668 2.53125C11.2248 2.53125 10.8009 2.70684 10.4883 3.01941C10.1758 3.33197 10.0002 3.75589 10.0002 4.19792V5.86458H8.3335C7.00741 5.86458 5.73564 6.39137 4.79796 7.32905C3.86028 8.26673 3.3335 9.5385 3.3335 10.8646V34.1979C3.3335 35.524 3.86028 36.7958 4.79796 37.7334C5.73564 38.6711 7.00741 39.1979 8.3335 39.1979H31.6668C32.9929 39.1979 34.2647 38.6711 35.2024 37.7334C36.14 36.7958 36.6668 35.524 36.6668 34.1979V10.8646C36.6668 9.5385 36.14 8.26673 35.2024 7.32905C34.2647 6.39137 32.9929 5.86458 31.6668 5.86458ZM33.3335 34.1979C33.3335 34.6399 33.1579 35.0639 32.8453 35.3764C32.5328 35.689 32.1089 35.8646 31.6668 35.8646H8.3335C7.89147 35.8646 7.46755 35.689 7.15499 35.3764C6.84242 35.0639 6.66683 34.6399 6.66683 34.1979V19.1979H33.3335V34.1979ZM33.3335 15.8646H6.66683V10.8646C6.66683 10.4226 6.84242 9.99863 7.15499 9.68607C7.46755 9.37351 7.89147 9.19792 8.3335 9.19792H10.0002V10.8646C10.0002 11.3066 10.1758 11.7305 10.4883 12.0431C10.8009 12.3557 11.2248 12.5312 11.6668 12.5312C12.1089 12.5312 12.5328 12.3557 12.8453 12.0431C13.1579 11.7305 13.3335 11.3066 13.3335 10.8646V9.19792H26.6668V10.8646C26.6668 11.3066 26.8424 11.7305 27.155 12.0431C27.4675 12.3557 27.8915 12.5312 28.3335 12.5312C28.7755 12.5312 29.1994 12.3557 29.512 12.0431C29.8246 11.7305 30.0002 11.3066 30.0002 10.8646V9.19792H31.6668C32.1089 9.19792 32.5328 9.37351 32.8453 9.68607C33.1579 9.99863 33.3335 10.4226 33.3335 10.8646V15.8646ZM11.6668 25.8646C11.9965 25.8646 12.3187 25.7668 12.5928 25.5837C12.8669 25.4006 13.0805 25.1403 13.2066 24.8357C13.3328 24.5312 13.3658 24.1961 13.3015 23.8728C13.2372 23.5495 13.0784 23.2525 12.8453 23.0194C12.6123 22.7863 12.3153 22.6276 11.992 22.5633C11.6687 22.499 11.3336 22.532 11.029 22.6581C10.7245 22.7843 10.4642 22.9979 10.281 23.272C10.0979 23.546 10.0002 23.8683 10.0002 24.1979C10.0002 24.6399 10.1758 25.0639 10.4883 25.3764C10.8009 25.689 11.2248 25.8646 11.6668 25.8646ZM11.6668 32.5312C11.9965 32.5312 12.3187 32.4335 12.5928 32.2504C12.8669 32.0672 13.0805 31.8069 13.2066 31.5024C13.3328 31.1978 13.3658 30.8627 13.3015 30.5394C13.2372 30.2161 13.0784 29.9192 12.8453 29.6861C12.6123 29.453 12.3153 29.2942 11.992 29.2299C11.6687 29.1656 11.3336 29.1986 11.029 29.3248C10.7245 29.4509 10.4642 29.6645 10.281 29.9386C10.0979 30.2127 10.0002 30.5349 10.0002 30.8646C10.0002 31.3066 10.1758 31.7305 10.4883 32.0431C10.8009 32.3557 11.2248 32.5312 11.6668 32.5312Z" fill="#A78061" stroke="white" stroke-width="0.4" mask="url(#path-1-inside-1_2092_1914)"/>
</svg>
