<svg width="42" height="42" viewBox="0 0 42 42" fill="none" xmlns="http://www.w3.org/2000/svg">
<path d="M34.7275 7.43304H30.1791C30.1401 6.82117 29.6326 6.33655 29.0109 6.33655H28.9505V3.82343C28.9505 2.19348 27.6108 0.867188 25.9641 0.867188H15.9167C14.2697 0.867188 12.93 2.19348 12.93 3.82343V6.33655H12.8696C12.2479 6.33655 11.7404 6.82117 11.7017 7.43304H7.15302C3.76068 7.43304 1.00098 10.1927 1.00098 13.5851V35.8419C1.00098 38.6129 3.25531 40.8672 6.02631 40.8672H35.8542C38.6252 40.8672 40.8795 38.6129 40.8795 35.8419V13.5851C40.8795 10.1927 38.1195 7.43304 34.7275 7.43304ZM21.6702 9.77679C22.7158 9.98553 23.6255 10.5782 24.2383 11.455C24.8685 12.3568 25.1099 13.4502 24.9176 14.5333C24.8419 14.9608 24.7018 15.3658 24.5023 15.7424L21.2094 16.1205C20.8728 16.1589 20.5695 16.3414 20.3775 16.6207L15.5539 23.6339C15.3778 23.89 15.3107 24.2055 15.3671 24.5113C15.4236 24.8171 15.5994 25.0875 15.8554 25.2635L20.6662 28.5723C20.8688 28.7117 21.1002 28.7786 21.329 28.7786C21.702 28.7786 22.0685 28.6013 22.2955 28.2708L27.1191 21.2575C27.3111 20.9783 27.373 20.6298 27.2885 20.3017L26.4545 17.0565C26.8332 16.404 27.092 15.6945 27.2253 14.9428C27.5269 13.243 27.1484 11.5276 26.1594 10.1128C26.0788 9.99713 25.9937 9.88605 25.9064 9.77679H30.1379V38.5234H11.7426V9.77679H21.6702ZM24.8862 20.3685L21.0287 25.9771L18.1491 23.9965L22.0065 18.3879L24.3091 18.124L24.8862 20.3685ZM15.2737 3.82343C15.2737 3.4743 15.5502 3.21094 15.9167 3.21094H25.9641C26.3306 3.21094 26.6068 3.4743 26.6068 3.82343V6.33655H26.5463C25.9247 6.33655 25.4172 6.82117 25.3784 7.43304H16.5024C16.4633 6.82117 15.9561 6.33655 15.3342 6.33655H15.2737V3.82343ZM3.34473 35.8419V13.5851C3.34473 11.4852 5.0531 9.77679 7.15302 9.77679H9.3985V38.5234H6.02631C4.54773 38.5234 3.34473 37.3204 3.34473 35.8419ZM38.5358 35.8419C38.5358 37.3204 37.3331 38.5234 35.8542 38.5234H32.482V9.77679H34.7275C36.8274 9.77679 38.5358 11.4852 38.5358 13.5851V35.8419Z" fill="#A78061" stroke="#A78061" stroke-width="0.6"/>
</svg>
