<svg width="40" height="41" viewBox="0 0 40 41" fill="none" xmlns="http://www.w3.org/2000/svg">
<g clip-path="url(#clip0_2092_1542)">
<path d="M20 0.867188C16.0444 0.867188 12.1776 2.04017 8.8886 4.2378C5.59962 6.43542 3.03617 9.559 1.52242 13.2135C0.00866569 16.868 -0.387401 20.8894 0.384303 24.769C1.15601 28.6486 3.06082 32.2123 5.85787 35.0093C8.65492 37.8064 12.2186 39.7112 16.0982 40.4829C19.9778 41.2546 23.9992 40.8585 27.6537 39.3448C31.3082 37.831 34.4318 35.2676 36.6294 31.9786C38.827 28.6896 40 24.8228 40 20.8672C39.9941 15.5647 37.885 10.4811 34.1356 6.73163C30.3861 2.98219 25.3025 0.873143 20 0.867188ZM20 37.5339C16.7037 37.5339 13.4813 36.5564 10.7405 34.725C7.99969 32.8937 5.86348 30.2907 4.60202 27.2452C3.34056 24.1998 3.0105 20.8487 3.65359 17.6157C4.29667 14.3827 5.88402 11.4129 8.2149 9.08207C10.5458 6.7512 13.5155 5.16385 16.7485 4.52077C19.9815 3.87768 23.3326 4.20773 26.3781 5.4692C29.4235 6.73066 32.0265 8.86686 33.8578 11.6077C35.6892 14.3485 36.6667 17.5708 36.6667 20.8672C36.6617 25.2859 34.9041 29.5222 31.7796 32.6468C28.6551 35.7713 24.4187 37.5288 20 37.5339Z" fill="#A78061"/>
<path d="M22.5 12.5312H16.6667C16.2246 12.5312 15.8007 12.7068 15.4882 13.0194C15.1756 13.332 15 13.7559 15 14.1979V30.8646H18.3333V24.1979H22.5C24.0471 24.1979 25.5308 23.5833 26.6248 22.4894C27.7188 21.3954 28.3333 19.9117 28.3333 18.3646C28.3333 16.8175 27.7188 15.3338 26.6248 14.2398C25.5308 13.1458 24.0471 12.5312 22.5 12.5312ZM22.5 20.8646H18.3333V15.8646H22.5C23.163 15.8646 23.7989 16.128 24.2678 16.5968C24.7366 17.0657 25 17.7015 25 18.3646C25 19.0276 24.7366 19.6635 24.2678 20.1324C23.7989 20.6012 23.163 20.8646 22.5 20.8646Z" fill="#A78061"/>
</g>
<defs>
<clipPath id="clip0_2092_1542">
<rect width="40" height="40" fill="white" transform="translate(0 0.867188)"/>
</clipPath>
</defs>
</svg>
