<svg width="40" height="41" viewBox="0 0 40 41" fill="none" xmlns="http://www.w3.org/2000/svg">
<path d="M25.9564 21.8854C24.2684 19.2521 21.3934 17.6797 18.2658 17.6797C15.1384 17.6797 12.2632 19.2521 10.5754 21.8854L6.50783 28.2307C5.83296 29.2837 5.52156 30.4997 5.60714 31.7473C5.69272 32.9951 6.16753 34.1571 6.98007 35.1081C7.79319 36.0589 8.86761 36.7086 10.0871 36.9873C11.3067 37.2658 12.5568 37.147 13.7022 36.6436L13.7769 36.6104C16.6593 35.368 19.9538 35.3792 22.8291 36.6436C23.5706 36.9696 24.3563 37.1344 25.1491 37.1344C25.5801 37.1344 26.0137 37.0855 26.4433 36.9876C27.6628 36.7091 28.7372 36.0595 29.5506 35.1087C30.3635 34.1579 30.8386 32.9957 30.9244 31.7479C31.0103 30.4997 30.6989 29.2837 30.024 28.2305L25.9564 21.8854ZM27.8795 33.6794C26.8448 34.8889 25.1711 35.2713 23.7143 34.6307C21.9827 33.8692 20.1241 33.4885 18.2649 33.4885C16.4074 33.4885 14.5491 33.8689 12.8187 34.6296L12.7695 34.6514C11.3238 35.2627 9.67471 34.8754 8.65152 33.6794C7.61803 32.4697 7.5004 30.757 8.35902 29.4173L12.4269 23.072C13.7085 21.0726 15.8911 19.8788 18.2658 19.8788C20.6404 19.8788 22.8233 21.0726 24.1053 23.072L28.1725 29.417C29.0314 30.7573 28.9135 32.4702 27.8795 33.6794Z" fill="#A78061" stroke="#A78061" stroke-width="0.6"/>
<path d="M7.60267 21.8763C8.81276 21.4115 9.73205 20.4365 10.1914 19.1305C10.6282 17.8878 10.5924 16.4849 10.0901 15.1798C9.58752 13.8756 8.67337 12.8109 7.51624 12.1816C6.30015 11.5207 4.96442 11.4131 3.75634 11.8788C1.32587 12.8132 0.210525 15.8166 1.27035 18.5753C2.11695 20.771 4.09149 22.1571 6.08778 22.1571C6.59752 22.1571 7.10868 22.0666 7.60267 21.8763ZM3.32245 17.7854C2.69795 16.1598 3.24661 14.4305 4.54627 13.9308C4.78096 13.8404 5.0291 13.7955 5.2824 13.7955C5.67335 13.7955 6.07719 13.9022 6.46586 14.1137C7.16478 14.4935 7.72317 15.1529 8.03799 15.97C8.35254 16.7877 8.38058 17.6509 8.1167 18.401C7.87486 19.0885 7.41206 19.5939 6.81389 19.8237L6.81274 19.8243C5.5148 20.3245 3.94896 19.4096 3.32245 17.7854Z" fill="#A78061" stroke="#A78061" stroke-width="0.6"/>
<path d="M15.4956 16.9008C18.534 16.9008 21.0059 14.0846 21.0059 10.623C21.0059 7.16053 18.534 4.34375 15.4956 4.34375C12.4575 4.34375 9.98584 7.16053 9.98584 10.623C9.98584 14.0846 12.4575 16.9008 15.4956 16.9008ZM15.4956 6.54263C17.3213 6.54263 18.807 8.37316 18.807 10.623C18.807 12.8719 17.3213 14.7019 15.4956 14.7019C13.6699 14.7019 12.1848 12.8719 12.1848 10.623C12.1848 8.37316 13.6699 6.54263 15.4956 6.54263Z" fill="#A78061" stroke="#A78061" stroke-width="0.6"/>
<path d="M25.0111 18.4391H25.0114C25.4788 18.5943 25.9556 18.6684 26.4304 18.6684C28.6462 18.6684 30.8056 17.0556 31.6296 14.5771C32.1042 13.1504 32.073 11.6419 31.5418 10.3297C30.9859 8.95618 29.9559 7.95905 28.6411 7.52174C27.3262 7.085 25.9035 7.26702 24.6359 8.03461C23.4249 8.76814 22.4971 9.95759 22.0234 11.3843C21.0231 14.394 22.3634 17.5588 25.0111 18.4391ZM24.1101 12.0778C24.4195 11.1462 25.0108 10.3786 25.7753 9.91552C26.4825 9.48708 27.2541 9.37804 27.9476 9.60843C28.6408 9.8391 29.1931 10.388 29.5034 11.1545C29.8385 11.9827 29.8529 12.9518 29.5429 13.8834C28.925 15.7426 27.2032 16.8501 25.7049 16.3524C24.2077 15.8545 23.4922 13.9369 24.1101 12.0778Z" fill="#A78061" stroke="#A78061" stroke-width="0.6"/>
<path d="M36.6162 17.709L36.6154 17.7082C34.5201 16.1604 31.3864 16.8313 29.6294 19.2044C27.8741 21.5788 28.1485 24.7708 30.2407 26.3197C31.0037 26.8849 31.9053 27.1551 32.828 27.1551C34.4362 27.1551 36.1094 26.3343 37.2276 24.8248C38.9829 22.4505 38.7087 19.2585 36.6162 17.709ZM35.4602 23.5166C34.4228 24.917 32.6686 25.3815 31.5492 24.5524C30.4307 23.7244 30.3626 21.9116 31.3973 20.5121C32.085 19.5831 33.0896 19.0662 34.0155 19.0662C34.4837 19.0662 34.9319 19.1984 35.3086 19.4769C36.4262 20.3057 36.494 22.118 35.4602 23.5166Z" fill="#A78061" stroke="#A78061" stroke-width="0.6"/>
</svg>
