<svg width="57" height="56" viewBox="0 0 57 56" fill="none" xmlns="http://www.w3.org/2000/svg">
<path d="M36.1371 29.466C33.9745 26.0925 30.2915 24.0781 26.2847 24.0781C22.2783 24.0781 18.5949 26.0925 16.4328 29.466L11.2219 37.5948C10.3574 38.9437 9.95844 40.5016 10.0681 42.0998C10.1777 43.6983 10.786 45.1869 11.8269 46.4053C12.8686 47.6233 14.245 48.4555 15.8073 48.8127C17.3696 49.1694 18.9711 49.0172 20.4385 48.3723L20.5342 48.3298C24.2267 46.7382 28.4473 46.7525 32.1306 48.3723C33.0806 48.7899 34.0871 49.0011 35.1027 49.0011C35.6549 49.0011 36.2104 48.9384 36.7607 48.813C38.323 48.4563 39.6995 47.624 40.7415 46.406C41.7828 45.188 42.3914 43.6991 42.5014 42.1005C42.6114 40.5016 42.2125 38.9437 41.3479 37.5945L36.1371 29.466ZM38.6006 44.575C37.2752 46.1244 35.131 46.6143 33.2647 45.7937C31.0465 44.8181 28.6654 44.3304 26.2836 44.3304C23.9041 44.3304 21.5234 44.8177 19.3066 45.7922L19.2436 45.8201C17.3916 46.6033 15.2789 46.1072 13.9682 44.575C12.6442 43.0252 12.4935 40.8312 13.5934 39.1149L18.8047 30.9861C20.4465 28.4247 23.2426 26.8954 26.2847 26.8954C29.3269 26.8954 32.1233 28.4247 33.7656 30.9861L38.9761 39.1146C40.0764 40.8316 39.9253 43.0259 38.6006 44.575Z" fill="#A78061" stroke="#A78061" stroke-width="0.8"/>
<path d="M12.6241 29.454C14.1743 28.8586 15.352 27.6094 15.9404 25.9364C16.5 24.3445 16.4541 22.5472 15.8107 20.8753C15.1668 19.2045 13.9957 17.8406 12.5133 17.0343C10.9554 16.1877 9.24427 16.0499 7.69663 16.6464C4.58302 17.8435 3.15417 21.6911 4.51189 25.2251C5.59645 28.038 8.12598 29.8137 10.6834 29.8137C11.3364 29.8137 11.9912 29.6978 12.6241 29.454ZM7.14079 24.2132C6.34075 22.1307 7.04362 19.9154 8.70859 19.2752C9.00925 19.1594 9.32714 19.1018 9.65162 19.1018C10.1525 19.1018 10.6698 19.2386 11.1677 19.5095C12.0631 19.9961 12.7784 20.8408 13.1818 21.8876C13.5847 22.9351 13.6206 24.0409 13.2826 25.0018C12.9728 25.8825 12.3799 26.53 11.6136 26.8244L11.6121 26.8252C9.94934 27.4661 7.94339 26.2939 7.14079 24.2132Z" fill="#A78061" stroke="#A78061" stroke-width="0.8"/>
<path d="M22.7352 23.0865C26.6276 23.0865 29.7943 19.4787 29.7943 15.0442C29.7943 10.6085 26.6276 7 22.7352 7C18.8432 7 15.6768 10.6085 15.6768 15.0442C15.6768 19.4787 18.8432 23.0865 22.7352 23.0865ZM22.7352 9.81693C25.0741 9.81693 26.9774 12.162 26.9774 15.0442C26.9774 17.9253 25.0741 20.2696 22.7352 20.2696C20.3963 20.2696 18.4937 17.9253 18.4937 15.0442C18.4937 12.162 20.3963 9.81693 22.7352 9.81693Z" fill="#A78061" stroke="#A78061" stroke-width="0.8"/>
<path d="M34.926 25.0575H34.9263C35.5251 25.2562 36.1359 25.3512 36.7442 25.3512C39.5828 25.3512 42.3492 23.2852 43.4048 20.11C44.0127 18.2823 43.9728 16.3497 43.2923 14.6687C42.5802 12.9091 41.2606 11.6317 39.5762 11.0715C37.8918 10.512 36.0692 10.7452 34.4453 11.7285C32.894 12.6683 31.7053 14.192 31.0985 16.0197C29.817 19.8754 31.5341 23.9297 34.926 25.0575ZM33.7718 16.9081C34.1681 15.7147 34.9256 14.7314 35.9049 14.1381C36.8109 13.5893 37.7994 13.4496 38.6878 13.7447C39.5759 14.0402 40.2835 14.7435 40.681 15.7253C41.1103 16.7864 41.1286 18.0279 40.7316 19.2213C39.9399 21.603 37.7342 23.0219 35.8147 22.3843C33.8968 21.7464 32.9801 19.2898 33.7718 16.9081Z" fill="#A78061" stroke="#A78061" stroke-width="0.8"/>
<path d="M49.7913 24.1232L49.7902 24.1221C47.1059 22.1393 43.0915 22.9987 40.8406 26.0389C38.5919 29.0806 38.9435 33.1697 41.6237 35.154C42.6012 35.8781 43.7562 36.2243 44.9383 36.2243C46.9985 36.2243 49.142 35.1727 50.5745 33.239C52.8231 30.1974 52.4719 26.1082 49.7913 24.1232ZM48.3104 31.5631C46.9813 33.3571 44.7341 33.9522 43.3001 32.89C41.8672 31.8293 41.7799 29.507 43.1054 27.7141C43.9865 26.524 45.2734 25.8618 46.4595 25.8618C47.0594 25.8618 47.6335 26.0312 48.1161 26.3879C49.5478 27.4497 49.6347 29.7713 48.3104 31.5631Z" fill="#A78061" stroke="#A78061" stroke-width="0.8"/>
</svg>
