<svg width="40" height="41" viewBox="0 0 40 41" fill="none" xmlns="http://www.w3.org/2000/svg">
<path d="M35.4624 20.2328L34.9328 18.4672H36.8C37.4628 18.4672 38 17.93 38 17.2672C38 16.6044 37.4628 16.0672 36.8 16.0672H34.2128L32.4628 10.2324C32.0024 8.69839 30.6168 7.66719 29.014 7.66719H26V5.26719C26 3.94359 24.9236 2.86719 23.6 2.86719H16.4C15.0764 2.86719 14 3.94359 14 5.26719V7.66719H10.986C9.3836 7.66719 7.9976 8.69839 7.5372 10.2332L5.7872 16.0672H3.2C2.5372 16.0672 2 16.6044 2 17.2672C2 17.93 2.5372 18.4672 3.2 18.4672H5.0672L4.5376 20.2328L3.7572 21.0132C2.624 22.1464 2 23.6528 2 25.2552V31.6672C2 32.9908 3.0764 34.0672 4.4 34.0672V36.4672C4.4 37.7908 5.4764 38.8672 6.8 38.8672H10.4C11.7236 38.8672 12.8 37.7908 12.8 36.4672V34.0672H27.2V36.4672C27.2 37.7908 28.2764 38.8672 29.6 38.8672H33.2C34.5236 38.8672 35.6 37.7908 35.6 36.4672V34.0672C36.9236 34.0672 38 32.9908 38 31.6672V25.2552C38 23.6528 37.376 22.1464 36.2428 21.0132L35.4624 20.2328ZM16.4 5.26719H23.6V7.66719H16.4V5.26719ZM9.8364 10.9228C9.99 10.4112 10.4516 10.0672 10.986 10.0672H29.014C29.5484 10.0672 30.01 10.4112 30.1636 10.922L32.7872 19.6672H7.2128L9.8364 10.9228ZM10.4 36.4672H6.8V34.0672H10.4V36.4672ZM33.2 36.4672H29.6V34.0672H33.2V36.4672ZM4.4 31.6672V25.2552C4.4 24.3076 4.7844 23.38 5.454 22.71L6.0968 22.0672H33.9032L34.546 22.71C35.2156 23.3804 35.6 24.308 35.6 25.2552L35.6016 31.6672H4.4ZM30.8 23.2672C28.8148 23.2672 27.2 24.882 27.2 26.8672C27.2 28.8524 28.8148 30.4672 30.8 30.4672C32.7852 30.4672 34.4 28.8524 34.4 26.8672C34.4 24.882 32.7852 23.2672 30.8 23.2672ZM30.8 28.0672C30.1384 28.0672 29.6 27.5288 29.6 26.8672C29.6 26.2056 30.1384 25.6672 30.8 25.6672C31.4616 25.6672 32 26.2056 32 26.8672C32 27.5288 31.4616 28.0672 30.8 28.0672ZM9.2 23.2672C7.2148 23.2672 5.6 24.882 5.6 26.8672C5.6 28.8524 7.2148 30.4672 9.2 30.4672C11.1852 30.4672 12.8 28.8524 12.8 26.8672C12.8 24.882 11.1852 23.2672 9.2 23.2672ZM9.2 28.0672C8.5384 28.0672 8 27.5288 8 26.8672C8 26.2056 8.5384 25.6672 9.2 25.6672C9.8616 25.6672 10.4 26.2056 10.4 26.8672C10.4 27.5288 9.8616 28.0672 9.2 28.0672Z" fill="#A78061" stroke="#A78061" stroke-width="0.2"/>
</svg>
