<svg width="57" height="56" viewBox="0 0 57 56" fill="none" xmlns="http://www.w3.org/2000/svg">
<path d="M49.9095 30.0088L47.979 31.1409C47.165 31.6185 46.1566 31.613 45.3476 31.1265L43.5434 30.0417C41.7745 28.9778 39.5696 28.9656 37.789 30.0099L35.8606 31.1409C35.0462 31.6185 34.0382 31.6129 33.2291 31.1265L31.4249 30.0417C31.2431 29.9323 31.0564 29.8347 30.8662 29.7475V8.76567C30.8663 6.96057 32.3346 5.49232 34.1395 5.49232C35.9444 5.49232 37.4125 6.96078 37.4125 8.76577V12.219H40.467V8.76567C40.467 5.27635 37.6287 2.4375 34.1396 2.4375C30.6504 2.4375 27.812 5.27635 27.812 8.76567V20.9139H14.9733V8.76567C14.9733 6.96067 16.4416 5.49232 18.2464 5.49232C20.0512 5.49232 21.5195 6.96078 21.5195 8.76577V12.219H24.5739V8.76567C24.5739 5.27635 21.7354 2.4375 18.2464 2.4375C14.7573 2.4375 11.9189 5.27635 11.9189 8.76567V30.9678L11.6241 31.1407C10.8099 31.6183 9.80154 31.6127 8.99271 31.1263L7.20044 30.0486L5.62646 32.6667L7.41873 33.7444C9.18647 34.8075 11.39 34.8196 13.1692 33.776L15.0976 32.645C15.9131 32.1667 16.9229 32.1723 17.733 32.6596L19.5372 33.7443C21.3049 34.8075 23.5083 34.8196 25.2876 33.776L27.2159 32.645C28.0314 32.1667 29.0412 32.1723 29.8513 32.6596L31.6555 33.7443C32.5485 34.2814 33.5527 34.5502 34.5573 34.5502C35.5412 34.5502 36.5255 34.2924 37.406 33.776L39.3344 32.645C40.1499 32.1668 41.1597 32.1724 41.9697 32.6596L43.774 33.7444C45.5418 34.8074 47.7453 34.8196 49.5244 33.776L51.4548 32.6439L49.9095 30.0088ZM27.812 29.2801C27.0688 29.3745 26.3398 29.6176 25.6708 30.01L23.7424 31.141C22.9282 31.6186 21.92 31.613 21.111 31.1266L19.3068 30.0418C17.9859 29.2475 16.422 29.0397 14.9732 29.4201V23.9687H27.812V29.2801Z" fill="#A78061" stroke="#A78061" stroke-width="0.727565"/>
<path d="M49.9073 40.1957L47.9769 41.3279C47.1628 41.8055 46.1546 41.7999 45.3455 41.3134L43.5412 40.2285C41.7722 39.1648 39.5673 39.1528 37.7868 40.1969L35.8584 41.3278C35.0443 41.8054 34.0359 41.7998 33.2271 41.3133L31.4227 40.2285C29.6539 39.1645 27.4488 39.1526 25.6685 40.1968L23.7401 41.3277C22.9258 41.8054 21.9176 41.7998 21.1087 41.3132L19.3044 40.2283C17.5353 39.1645 15.3304 39.1524 13.5501 40.1967L11.6217 41.3276C10.8075 41.8051 9.7992 41.7996 8.99037 41.3132L7.1981 40.2354L5.62402 42.8533L7.4166 43.9311C9.18433 44.9941 11.3877 45.0062 13.167 43.9627L15.0954 42.8317C15.9107 42.3534 16.9205 42.3589 17.7307 42.8462L19.535 43.9312C21.3028 44.9943 23.5062 45.0062 25.2853 43.9628L27.2137 42.8318C28.0291 42.3532 29.0389 42.3589 29.8489 42.8462L31.6533 43.9312C32.5464 44.4681 33.5506 44.737 34.5551 44.737C35.539 44.737 36.5233 44.479 37.4038 43.9627L39.3323 42.8317C40.1475 42.3535 41.1571 42.3588 41.9675 42.8462L43.7719 43.9312C45.5398 44.9943 47.7432 45.0062 49.5222 43.9628L51.4526 42.8307L49.9073 40.1957Z" fill="#A78061" stroke="#A78061" stroke-width="0.727565"/>
<path d="M49.9093 50.0391L47.9791 51.1714C47.1649 51.6489 46.1566 51.6435 45.3477 51.1569L43.5434 50.072C41.7745 49.0084 39.5695 48.9963 37.7891 50.0404L35.8607 51.1714C35.0464 51.6489 34.0384 51.6433 33.2292 51.1569L31.4249 50.0721C29.6561 49.0081 27.4511 48.9963 25.6707 50.0404L23.7423 51.1714C22.9281 51.6489 21.9199 51.6435 21.1109 51.1569L19.3067 50.072C17.5375 49.0082 15.3326 48.9963 13.5523 50.0404L11.6239 51.1714C10.8097 51.6489 9.80144 51.6434 8.99251 51.1569L7.20044 50.079L5.62646 52.6971L7.41873 53.7748C9.18647 54.8379 11.39 54.85 13.1691 53.8065L15.0975 52.6755C15.9128 52.1973 16.9227 52.2028 17.7328 52.69L19.537 53.7747C21.3047 54.8379 23.5082 54.8501 25.2874 53.8064L27.2158 52.6754C28.0311 52.1969 29.0408 52.2026 29.8511 52.6899L31.6553 53.7746C32.5484 54.3118 33.5525 54.5806 34.5572 54.5806C35.5411 54.5805 36.5254 54.3227 37.4058 53.8063L39.3343 52.6753C40.1498 52.197 41.1597 52.2027 41.9695 52.6898L43.7738 53.7746C45.5416 54.8377 47.745 54.8499 49.5242 53.8063L51.4546 52.6742L49.9093 50.0391Z" fill="#A78061" stroke="#A78061" stroke-width="0.727565"/>
</svg>
