<svg width="57" height="57" viewBox="0 0 57 57" fill="none" xmlns="http://www.w3.org/2000/svg">
<path fill-rule="evenodd" clip-rule="evenodd" d="M11.6055 9.53666C11.6055 6.90538 13.7374 4.77344 16.3687 4.77344H32.2997C34.931 4.77344 37.0629 6.90538 37.0629 9.53666V10.5665H43.8859C44.9169 10.5665 45.7526 11.4023 45.7526 12.4332V16.3596H48.2308V20.093H43.888C43.8873 20.093 43.8866 20.093 43.8859 20.093H26.5066C26.5059 20.093 26.5053 20.093 26.5046 20.093H22.1618V16.3596H24.64V12.4332C24.64 11.4023 25.4757 10.5665 26.5066 10.5665H33.3296V9.53666C33.3296 8.96724 32.8691 8.50677 32.2997 8.50677H16.3687C15.7993 8.50677 15.3388 8.96724 15.3388 9.53666V48.6401H11.6055V9.53666ZM28.3733 16.3596H42.0193V14.2999H28.3733V16.3596Z" fill="#A78061"/>
<path d="M35.197 22.5781C34.3975 22.5781 33.7487 23.227 33.7487 24.0264C33.7487 24.8258 34.3975 25.4747 35.197 25.4747C35.9964 25.4747 36.6453 24.8258 36.6453 24.0264C36.6453 23.227 35.9964 22.5781 35.197 22.5781ZM27.9556 22.5781C27.1562 22.5781 26.5073 23.227 26.5073 24.0264C26.5073 24.8258 27.1562 25.4747 27.9556 25.4747C28.755 25.4747 29.4039 24.8258 29.4039 24.0264C29.4039 23.227 28.755 22.5781 27.9556 22.5781ZM42.4384 22.5781C41.6389 22.5781 40.9901 23.227 40.9901 24.0264C40.9901 24.8258 41.6389 25.4747 42.4384 25.4747C43.2378 25.4747 43.8866 24.8258 43.8866 24.0264C43.8866 23.227 43.2378 22.5781 42.4384 22.5781ZM35.197 28.3712C34.3975 28.3712 33.7487 29.0201 33.7487 29.8195C33.7487 30.619 34.3975 31.2678 35.197 31.2678C35.9964 31.2678 36.6453 30.619 36.6453 29.8195C36.6453 29.0201 35.9964 28.3712 35.197 28.3712ZM42.4384 28.3712C41.6389 28.3712 40.9901 29.0201 40.9901 29.8195C40.9901 30.619 41.6389 31.2678 42.4384 31.2678C43.2378 31.2678 43.8866 30.619 43.8866 29.8195C43.8866 29.0201 43.2378 28.3712 42.4384 28.3712ZM27.9556 28.3712C27.1562 28.3712 26.5073 29.0201 26.5073 29.8195C26.5073 30.619 27.1562 31.2678 27.9556 31.2678C28.755 31.2678 29.4039 30.619 29.4039 29.8195C29.4039 29.0201 28.755 28.3712 27.9556 28.3712ZM35.197 34.1643C34.3975 34.1643 33.7487 34.8132 33.7487 35.6126C33.7487 36.4121 34.3975 37.0609 35.197 37.0609C35.9964 37.0609 36.6453 36.4121 36.6453 35.6126C36.6453 34.8132 35.9964 34.1643 35.197 34.1643ZM42.4384 34.1643C41.6389 34.1643 40.9901 34.8132 40.9901 35.6126C40.9901 36.4121 41.6389 37.0609 42.4384 37.0609C43.2378 37.0609 43.8866 36.4121 43.8866 35.6126C43.8866 34.8132 43.2378 34.1643 42.4384 34.1643ZM27.9556 34.1643C27.1562 34.1643 26.5073 34.8132 26.5073 35.6126C26.5073 36.4121 27.1562 37.0609 27.9556 37.0609C28.755 37.0609 29.4039 36.4121 29.4039 35.6126C29.4039 34.8132 28.755 34.1643 27.9556 34.1643ZM35.197 39.9574C34.3975 39.9574 33.7487 40.6063 33.7487 41.4057C33.7487 42.2052 34.3975 42.854 35.197 42.854C35.9964 42.854 36.6453 42.2052 36.6453 41.4057C36.6453 40.6063 35.9964 39.9574 35.197 39.9574ZM42.4384 39.9574C41.6389 39.9574 40.9901 40.6063 40.9901 41.4057C40.9901 42.2052 41.6389 42.854 42.4384 42.854C43.2378 42.854 43.8866 42.2052 43.8866 41.4057C43.8866 40.6063 43.2378 39.9574 42.4384 39.9574ZM27.9556 39.9574C27.1562 39.9574 26.5073 40.6063 26.5073 41.4057C26.5073 42.2052 27.1562 42.854 27.9556 42.854C28.755 42.854 29.4039 42.2052 29.4039 41.4057C29.4039 40.6063 28.755 39.9574 27.9556 39.9574ZM35.197 45.7505C34.3975 45.7505 33.7487 46.3994 33.7487 47.1988C33.7487 47.9983 34.3975 48.6471 35.197 48.6471C35.9964 48.6471 36.6453 47.9983 36.6453 47.1988C36.6453 46.3994 35.9964 45.7505 35.197 45.7505ZM42.4384 45.7505C41.6389 45.7505 40.9901 46.3994 40.9901 47.1988C40.9901 47.9983 41.6389 48.6471 42.4384 48.6471C43.2378 48.6471 43.8866 47.9983 43.8866 47.1988C43.8866 46.3994 43.2378 45.7505 42.4384 45.7505ZM27.9556 45.7505C27.1562 45.7505 26.5073 46.3994 26.5073 47.1988C26.5073 47.9983 27.1562 48.6471 27.9556 48.6471C28.755 48.6471 29.4039 47.9983 29.4039 47.1988C29.4039 46.3994 28.755 45.7505 27.9556 45.7505Z" fill="#A78061"/>
<path d="M42.4377 22.5781C41.6383 22.5781 40.9894 23.227 40.9894 24.0264C40.9894 24.8258 41.6383 25.4747 42.4377 25.4747C43.2372 25.4747 43.886 24.8258 43.886 24.0264C43.886 23.227 43.2372 22.5781 42.4377 22.5781ZM35.1963 22.5781C34.3969 22.5781 33.748 23.227 33.748 24.0264C33.748 24.8258 34.3969 25.4747 35.1963 25.4747C35.9958 25.4747 36.6446 24.8258 36.6446 24.0264C36.6446 23.227 35.9958 22.5781 35.1963 22.5781ZM42.4377 28.3712C41.6383 28.3712 40.9894 29.0201 40.9894 29.8195C40.9894 30.619 41.6383 31.2678 42.4377 31.2678C43.2372 31.2678 43.886 30.619 43.886 29.8195C43.886 29.0201 43.2372 28.3712 42.4377 28.3712ZM35.1963 28.3712C34.3969 28.3712 33.748 29.0201 33.748 29.8195C33.748 30.619 34.3969 31.2678 35.1963 31.2678C35.9958 31.2678 36.6446 30.619 36.6446 29.8195C36.6446 29.0201 35.9958 28.3712 35.1963 28.3712ZM42.4377 34.1643C41.6383 34.1643 40.9894 34.8132 40.9894 35.6126C40.9894 36.4121 41.6383 37.0609 42.4377 37.0609C43.2372 37.0609 43.886 36.4121 43.886 35.6126C43.886 34.8132 43.2372 34.1643 42.4377 34.1643ZM35.1963 34.1643C34.3969 34.1643 33.748 34.8132 33.748 35.6126C33.748 36.4121 34.3969 37.0609 35.1963 37.0609C35.9958 37.0609 36.6446 36.4121 36.6446 35.6126C36.6446 34.8132 35.9958 34.1643 35.1963 34.1643ZM42.4377 39.9574C41.6383 39.9574 40.9894 40.6063 40.9894 41.4057C40.9894 42.2052 41.6383 42.854 42.4377 42.854C43.2372 42.854 43.886 42.2052 43.886 41.4057C43.886 40.6063 43.2372 39.9574 42.4377 39.9574ZM35.1963 39.9574C34.3969 39.9574 33.748 40.6063 33.748 41.4057C33.748 42.2052 34.3969 42.854 35.1963 42.854C35.9958 42.854 36.6446 42.2052 36.6446 41.4057C36.6446 40.6063 35.9958 39.9574 35.1963 39.9574ZM42.4377 45.7505C41.6383 45.7505 40.9894 46.3994 40.9894 47.1988C40.9894 47.9983 41.6383 48.6471 42.4377 48.6471C43.2372 48.6471 43.886 47.9983 43.886 47.1988C43.886 46.3994 43.2372 45.7505 42.4377 45.7505ZM35.1963 45.7505C34.3969 45.7505 33.748 46.3994 33.748 47.1988C33.748 47.9983 34.3969 48.6471 35.1963 48.6471C35.9958 48.6471 36.6446 47.9983 36.6446 47.1988C36.6446 46.3994 35.9958 45.7505 35.1963 45.7505Z" fill="#A78061"/>
</svg>
