<svg width="40" height="41" viewBox="0 0 40 41" fill="none" xmlns="http://www.w3.org/2000/svg">
<g clip-path="url(#clip0_2092_1828)">
<path d="M35.2359 22.373L33.8516 23.1849C33.2679 23.5273 32.5448 23.5234 31.9646 23.1745L30.6708 22.3966C29.4023 21.6337 27.8212 21.6249 26.5443 22.3738L25.1614 23.1849C24.5775 23.5273 23.8546 23.5233 23.2744 23.1745L21.9806 22.3966C21.8502 22.3182 21.7163 22.2482 21.5799 22.1857V7.13951C21.58 5.84507 22.6329 4.79218 23.9272 4.79218C25.2215 4.79218 26.2744 5.84522 26.2744 7.13958V9.61594H28.4647V7.13951C28.4647 4.63731 26.4294 2.60156 23.9273 2.60156C21.4252 2.60156 19.3898 4.63731 19.3898 7.13951V15.851H10.1831V7.13951C10.1831 5.84514 11.236 4.79218 12.5302 4.79218C13.8245 4.79218 14.8774 5.84522 14.8774 7.13958V9.61594H17.0678V7.13951C17.0678 4.63731 15.0322 2.60156 12.5302 2.60156C10.0282 2.60156 7.9928 4.63731 7.9928 7.13951V23.0607L7.78142 23.1847C7.19754 23.5272 6.47443 23.5232 5.89441 23.1744L4.60917 22.4016L3.48047 24.279L4.76571 25.0519C6.03336 25.8142 7.6135 25.8229 8.88939 25.0745L10.2723 24.2635C10.857 23.9205 11.5811 23.9245 12.1621 24.2739L13.4559 25.0518C14.7235 25.8142 16.3036 25.8229 17.5795 25.0745L18.9623 24.2635C19.5471 23.9205 20.2713 23.9245 20.8521 24.2739L22.1459 25.0518C22.7863 25.4369 23.5065 25.6297 24.2269 25.6297C24.9324 25.6297 25.6383 25.4448 26.2697 25.0745L27.6525 24.2635C28.2373 23.9206 28.9614 23.9246 29.5423 24.2739L30.8362 25.0519C32.1038 25.8141 33.684 25.8229 34.9598 25.0745L36.3441 24.2627L35.2359 22.373ZM19.3898 21.8505C18.8569 21.9182 18.3341 22.0925 17.8543 22.3739L16.4715 23.1849C15.8876 23.5274 15.1646 23.5234 14.5845 23.1746L13.2907 22.3967C12.3435 21.8271 11.222 21.6781 10.183 21.9509V18.0417H19.3898V21.8505Z" fill="#A78061" stroke="#A78061" stroke-width="0.6"/>
<path d="M35.2347 29.6877L33.8504 30.4996C33.2666 30.8421 32.5436 30.8381 31.9634 30.4892L30.6695 29.7112C29.401 28.9484 27.8198 28.9398 26.543 29.6886L25.1602 30.4995C24.5764 30.842 23.8533 30.838 23.2732 30.4892L21.9793 29.7112C20.7109 28.9482 19.1296 28.9397 17.8529 29.6885L16.4701 30.4995C15.8862 30.842 15.1631 30.838 14.5831 30.4891L13.2893 29.7111C12.0206 28.9482 10.4394 28.9396 9.16282 29.6884L7.77996 30.4994C7.19608 30.8418 6.47303 30.8379 5.89302 30.4891L4.60778 29.7162L3.479 31.5935L4.76446 32.3664C6.03211 33.1287 7.61218 33.1373 8.88807 32.389L10.2709 31.578C10.8556 31.235 11.5798 31.239 12.1607 31.5884L13.4546 32.3665C14.7223 33.1288 16.3024 33.1373 17.5782 32.3891L18.961 31.5781C19.5457 31.2349 20.2699 31.239 20.8508 31.5884L22.1447 32.3665C22.7851 32.7515 23.5052 32.9443 24.2256 32.9443C24.9311 32.9443 25.637 32.7593 26.2684 32.389L27.6513 31.578C28.2359 31.2351 28.9599 31.2389 29.541 31.5884L30.8349 32.3665C32.1027 33.1288 33.6828 33.1373 34.9585 32.3891L36.3428 31.5773L35.2347 29.6877Z" fill="#A78061" stroke="#A78061" stroke-width="0.6"/>
<path d="M35.2358 36.7344L33.8517 37.5463C33.2678 37.8887 32.5448 37.8849 31.9647 37.5359L30.6708 36.7579C29.4023 35.9952 27.8211 35.9865 26.5444 36.7353L25.1615 37.5463C24.5776 37.8887 23.8547 37.8847 23.2745 37.5359L21.9806 36.758C20.7122 35.995 19.1309 35.9865 17.8542 36.7353L16.4714 37.5463C15.8875 37.8887 15.1645 37.8849 14.5844 37.5359L13.2906 36.7579C12.0219 35.9951 10.4408 35.9865 9.16414 36.7353L7.78128 37.5463C7.1974 37.8887 6.47435 37.8848 5.89427 37.5359L4.60917 36.763L3.48047 38.6404L4.76571 39.4133C6.03336 40.1756 7.6135 40.1843 8.88932 39.436L10.2722 38.6249C10.8569 38.282 11.581 38.286 12.162 38.6353L13.4557 39.4132C14.7234 40.1756 16.3035 40.1844 17.5794 39.4359L18.9622 38.6249C19.5469 38.2817 20.271 38.2858 20.852 38.6352L22.1458 39.4131C22.7863 39.7983 23.5063 39.9911 24.2268 39.9911C24.9323 39.991 25.6382 39.8061 26.2695 39.4358L27.6525 38.6248C28.2372 38.2818 28.9614 38.2859 29.5422 38.6352L30.836 39.4131C32.1038 40.1755 33.6838 40.1842 34.9596 39.4358L36.344 38.624L35.2358 36.7344Z" fill="#A78061" stroke="#A78061" stroke-width="0.6"/>
</g>
<defs>
<clipPath id="clip0_2092_1828">
<rect width="40" height="40" fill="white" transform="translate(0 0.867188)"/>
</clipPath>
</defs>
</svg>
