<svg width="46" height="47" viewBox="0 0 46 47" fill="none" xmlns="http://www.w3.org/2000/svg">
<path d="M9.47298 23.9054C8.63726 24.703 8.63726 26.0011 9.47298 26.8065C10.3087 27.6041 11.6688 27.6041 12.5127 26.8065C18.2971 21.2857 27.7112 21.2857 33.4956 26.8065C33.9135 27.2053 34.4624 27.4087 35.0113 27.4087C35.5603 27.4087 36.1092 27.2053 36.5271 26.8065C37.3628 26.0089 37.3628 24.7108 36.5271 23.9054C29.0712 16.7815 16.9288 16.7815 9.47298 23.9054Z" fill="#A78061"/>
<path d="M14.8179 30.7071C13.9324 31.5686 13.9324 32.9707 14.8179 33.8406C15.7034 34.7021 17.1445 34.7021 18.0387 33.8406C20.7732 31.1716 25.2354 31.1716 27.97 33.8406C28.4127 34.2714 28.9943 34.491 29.576 34.491C30.1576 34.491 30.7393 34.2714 31.182 33.8406C32.0675 32.9791 32.0675 31.577 31.182 30.7155C26.6765 26.315 19.3322 26.315 14.8179 30.7071Z" fill="#A78061"/>
<path d="M22.1153 41.5655C23.581 41.5655 24.7691 40.3773 24.7691 38.9117C24.7691 37.446 23.581 36.2578 22.1153 36.2578C20.6496 36.2578 19.4614 37.446 19.4614 38.9117C19.4614 40.3773 20.6496 41.5655 22.1153 41.5655Z" fill="#A78061"/>
<path d="M41.8531 17.0027C31.4561 7.29078 14.5441 7.29078 4.14712 17.0027C3.33573 17.7612 3.33573 18.9956 4.14712 19.7615C4.95851 20.52 6.27902 20.52 7.09837 19.7615C15.8646 11.5592 30.1356 11.5592 38.9098 19.7615C39.3155 20.1408 39.8485 20.3341 40.3815 20.3341C40.9144 20.3341 41.4474 20.1408 41.8531 19.7615C42.6645 19.003 42.6645 17.7686 41.8531 17.0027Z" fill="#A78061"/>
</svg>
