<svg width="49" height="47" viewBox="0 0 49 47" fill="none" xmlns="http://www.w3.org/2000/svg">
<path d="M17.8433 30.5879C17.8433 30.6488 17.7824 37.063 14.0475 41.0211C10.4142 44.8574 6.47634 44.6342 6.29366 44.6139C6.27336 44.6139 5.17727 44.5327 4.10147 43.944C2.80239 43.2336 2.17316 42.1375 2.17316 40.5746C2.17316 39.5394 2.49793 38.4839 3.10687 37.5298C6.35455 32.4147 12.8296 30.8721 16.6051 30.4052V28.2333C12.444 28.7002 8.89181 29.8775 6.05008 31.684C3.53313 33.2876 2.07167 35.1144 1.28004 36.3729C0.447822 37.6719 0.021561 39.1334 0.021561 40.5746C0.00126292 45.1619 4.02028 46.6437 6.15157 46.7858C6.19217 46.7858 6.31396 46.8061 6.51694 46.8061C7.75512 46.8061 11.8959 46.4813 15.6308 42.5232C19.9542 37.9561 20.0151 30.9127 20.0151 30.6082V20.1953H17.8433V30.5879Z" fill="white"/>
<path d="M21.9628 16.8889H21.9425C20.339 16.9295 18.8572 16.8686 17.4972 16.7468H17.4769C8.48489 15.9146 4.62826 11.9565 3.06531 9.45982C2.49697 8.54641 2.1925 7.5315 2.1722 6.5166C2.1519 4.95365 2.78114 3.83726 4.10051 3.12683C5.17631 2.53818 6.2927 2.45699 6.2927 2.45699H6.313C6.3536 2.45699 10.3726 2.17282 14.0466 6.04975C15.7313 7.83597 16.8274 10.2311 17.3145 13.1541C17.4363 13.9051 17.5175 14.8591 17.5378 15.671H19.7097C19.6894 14.7373 19.5879 13.6818 19.4458 12.809C18.8978 9.43952 17.619 6.65869 15.6095 4.56799C11.286 0.000925779 6.47539 0.264802 6.13032 0.305398C3.97873 0.447484 -0.0402909 1.92924 0.000305216 6.5572C0.0206033 7.97806 0.426564 9.37863 1.21819 10.6371C3.2074 13.8239 8.424 19.1014 21.0697 19.1014C21.3742 19.1014 21.6786 19.1014 21.9831 19.1014H27.768V16.9295H21.9628V16.8889Z" fill="white"/>
<path d="M31.1582 16.4994C31.1582 16.4385 31.2191 10.0243 34.954 6.06619C38.5873 2.22986 42.5251 2.45314 42.7078 2.47344C42.7281 2.47344 43.8242 2.55463 44.9 3.14328C46.1991 3.85371 46.8283 4.9498 46.8283 6.51275C46.8283 7.54795 46.5036 8.60345 45.8946 9.55746C42.6469 14.6726 36.1718 16.2152 32.3964 16.6821V18.854C36.5575 18.3871 40.1097 17.2098 42.9514 15.4033C45.4684 13.7998 46.9298 11.9729 47.7214 10.7144C48.5537 9.41537 48.9799 7.95391 48.9799 6.51275C49.0002 1.92539 44.9812 0.443634 42.8499 0.301548C42.8093 0.301548 42.6875 0.28125 42.4845 0.28125C41.2463 0.28125 37.1056 0.606017 33.3707 4.56414C29.0472 9.1312 28.9863 16.1746 28.9863 16.4791V26.892H31.1582V16.4994Z" fill="white"/>
<path d="M27.0377 30.2047H27.058C28.6615 30.1641 30.1433 30.225 31.5032 30.3468H31.5235C40.5156 31.179 44.3722 35.1371 45.9351 37.6338C46.5035 38.5472 46.808 39.5621 46.8283 40.577C46.8486 42.1399 46.2193 43.2563 44.9 43.9668C43.8242 44.5554 42.7078 44.6366 42.7078 44.6366H42.6875C42.6469 44.6366 38.6279 44.9208 34.9539 41.0438C33.2692 39.2576 32.1731 36.8624 31.6859 33.9395C31.5641 33.1885 31.4829 32.2345 31.4626 31.4226H29.2907C29.311 32.3563 29.4125 33.4118 29.5546 34.2846C30.1027 37.6541 31.3814 40.4349 33.391 42.5256C37.7144 47.0927 42.5251 46.8288 42.8701 46.7882C45.0217 46.6461 49.0408 45.1643 49.0002 40.5364C48.9799 39.1155 48.5739 37.715 47.7823 36.4565C45.7931 33.2697 40.5765 27.9922 27.9308 27.9922C27.6263 27.9922 27.3218 27.9922 27.0174 27.9922H21.2324V30.1641H27.0377V30.2047Z" fill="white"/>
<path d="M24.5012 19.1875L20.1777 23.9981C20.3401 25.7235 22.0857 27.9157 24.42 27.9157H24.5012H24.5824C26.937 27.9157 28.6826 25.7438 28.8247 23.9981L24.5012 19.1875ZM24.5012 27.6112C23.9329 25.013 23.4863 24.5665 20.8882 23.9981C23.4863 23.4298 23.9329 22.9832 24.5012 20.3851C25.0696 22.9832 25.5161 23.4298 28.1143 23.9981C25.5161 24.5665 25.0696 25.013 24.5012 27.6112Z" fill="white"/>
</svg>
